<svg xmlns="http://www.w3.org/2000/svg" width="3715.675" height="3124.706" viewBox="0 0 3715.675 3124.706"><g transform="translate(418.341 -3997.17)"><path d="M-23.2,1499.7,63.9,1371.02S391.84,955.849,877.484,836.882,1156.6,551,1397.439,395,1581.535,35.069,2009.773-49.3,3213.324,28.392,3213.324,28.392l-36.951,1650.971H-23.2Z" transform="matrix(0.875, 0.485, -0.485, 0.875, 416.121, 4072.824)" fill="rgba(65,71,193,0.57)"/><path d="M-23.2,1489.826l87.831-127.871s330.7-412.565,820.422-530.786,281.459-284.091,524.325-439.1S1595.022,34.387,2026.858-49.453,3240.524,27.752,3240.524,27.752l-37.262,1640.611H-23.2Z" transform="matrix(0.875, 0.485, -0.485, 0.875, 427.406, 4091.656)" fill="#4147c1"/></g></svg>